<?xml version="1.0" standalone="no"?><!DOCTYPE svg PUBLIC "-//W3C//DTD SVG 1.1//EN" "http://www.w3.org/Graphics/SVG/1.1/DTD/svg11.dtd"><svg t="1568551753186" class="icon" viewBox="0 0 1024 1024" version="1.1" xmlns="http://www.w3.org/2000/svg" p-id="5027" xmlns:xlink="http://www.w3.org/1999/xlink" width="16" height="16"><defs><style type="text/css"></style></defs><path d="M792.67 97.2H232.38c-74.62 0-135.33 60.71-135.33 135.33v560.29c0 74.62 60.71 135.33 135.33 135.33h560.29c74.62 0 135.33-60.71 135.33-135.33V232.53c0-74.62-60.71-135.33-135.33-135.33z m67.66 695.62c0 37.31-30.35 67.66-67.66 67.66H232.38c-37.31 0-67.66-30.35-67.66-67.66V232.53c0-37.31 30.35-67.66 67.66-67.66h560.29c37.31 0 67.66 30.35 67.66 67.66v560.29z" p-id="5028" fill="#ffffff"></path><path d="M447.82 293.6L323.57 406.81l-37.92-41.85c-12.55-13.84-33.94-14.9-47.79-2.35-13.85 12.55-14.9 33.94-2.35 47.79l60.7 66.98a33.789 33.789 0 0 0 23.45 11.07 33.858 33.858 0 0 0 24.41-8.79L493.39 343.6c13.81-12.58 14.8-33.98 2.22-47.79-12.58-13.8-33.98-14.8-47.79-2.21zM342.22 580.53c-63.67 0-115.47 51.8-115.47 115.47s51.8 115.47 115.47 115.47S457.69 759.67 457.69 696s-51.8-115.47-115.47-115.47z m0 163.27c-26.36 0-47.81-21.45-47.81-47.81 0-26.36 21.45-47.81 47.81-47.81 26.36 0 47.81 21.45 47.81 47.81 0 26.37-21.45 47.81-47.81 47.81zM801.57 352.8H569.89c-18.68 0-33.83 15.15-33.83 33.83s15.15 33.83 33.83 33.83h231.68c18.68 0 33.83-15.15 33.83-33.83s-15.15-33.83-33.83-33.83zM801.57 662.17H569.89c-18.68 0-33.83 15.15-33.83 33.83s15.15 33.83 33.83 33.83h231.68c18.68 0 33.83-15.15 33.83-33.83 0-18.69-15.15-33.83-33.83-33.83z" p-id="5029" fill="#ffffff"></path></svg>